# xmcd CD database file
#
# Track frame offsets:
#	150
#	17412
#	30861
#	44196
#	74619
#	87147
#	102984
#	125340
#	140709
#	154521
#	176576
#	191682
#	205774
#	220573
#	253965
#	271533
#	284486
#	296656
#
# Disc length: 4500 seconds
#
# Revision: 0
# Processed by: cddbd v1.5.2PL0 Copyright (c) Steve Scherf et al.
# Submitted via: CDex 1.70beta2
#
DISCID=09119212
DTITLE=Various Artist - 101 Jazz Diamonds CD2
DYEAR=2009
DGENRE=Jazz
TTITLE0=Thelonious Monk - Tea For Two
TTITLE1=Duke Ellington and His Orchestra - It Don't Mean A Thing
TTITLE2=Billie Holliday - What A Little Moonlight Can Do
TTITLE3=Dave Brubeck Quartet - Blue Rondo a la Turk
TTITLE4=Charlie Byrd - The Girl From Ipanema
TTITLE5=Aretha Franklin - What A Difference A Day Made
TTITLE6=Kirk Whalum - 'Til I Get It Right
TTITLE7=Miles Davis - Once Upon A Summertime
TTITLE8=Billie Holiday - Easy Living
TTITLE9=Gerry Mulligan - My Funny Valentine
TTITLE10=Louis Armstrong - What A Wonderful World
TTITLE11=Cloeman Hawkins and His Orchestra - April In Paris
TTITLE12=Sarah Vaughn - Summertime
TTITLE13=Bill Evans - The Two Lonely People
TTITLE14=Nina Simone - I Shall Be Released
TTITLE15=Neal Hefti - Girl Talk
TTITLE16=Lionel Hampton With Reeds and Rhythm - Satin Doll
TTITLE17=Art Blakey and The Jazz Messengers - On The Street Where You Live
EXTD=YEAR: 2009
EXTT0=
EXTT1=
EXTT2=
EXTT3=
EXTT4=
EXTT5=
EXTT6=
EXTT7=
EXTT8=
EXTT9=
EXTT10=
EXTT11=
EXTT12=
EXTT13=
EXTT14=
EXTT15=
EXTT16=
EXTT17=
PLAYORDER=
